Coordinates
version=1
nRows=8
nColumns=36
inDegrees=yes

Units are S.I. units (second, meters, Newtons, ...)
If the header above contains a line with 'inDegrees', this indicates whether rotational values are in degrees (yes) or radians (no).

endheader
time	pelvis_tilt	pelvis_list	pelvis_rotation	pelvis_tx	pelvis_ty	pelvis_tz	hip_flexion_r	hip_adduction_r	hip_rotation_r	knee_angle_r	knee_angle_r_beta	ankle_angle_r	subtalar_angle_r	mtp_angle_r	hip_flexion_l	hip_adduction_l	hip_rotation_l	knee_angle_l	knee_angle_l_beta	ankle_angle_l	subtalar_angle_l	mtp_angle_l	lumbar_extension	lumbar_bending	lumbar_rotation	arm_flex_r	arm_add_r	arm_rot_r	elbow_flex_r	pro_sup_r	arm_flex_l	arm_add_l	arm_rot_l	elbow_flex_l	pro_sup_l
      0.00000000	     -0.87914846	     -1.06595890	     -5.59023947	      1.38054931	      0.91583954	     -0.11695612	     -0.32258738	     -0.49208926	     -2.59144625	      7.57491488	      0.13220721	     18.47511609	      6.27340761	     -6.26538963	     -3.17434944	     -0.91182801	     -6.63437523	      4.15228982	      0.07247113	     19.13233898	      7.57840168	     -6.26538963	     -1.00292588	      1.68247495	     -0.67422198	     34.53171278	     -3.74353920	     60.72352975	    119.61121332	     77.35179039	     36.09222739	     -5.45304138	     64.43476818	    123.92634677	     81.02210919
      0.01666670	     -0.41931165	     -1.38484357	     -5.87492014	      1.38010769	      0.91489660	     -0.11757933	     -2.25442609	      0.18091436	     -3.66338545	      4.61961037	      0.08062741	     19.08826574	      6.84250425	     -6.49814949	     -4.66000028	     -0.88160230	     -6.50762266	      2.21254074	      0.03861612	     19.04227309	      7.58965152	     -6.49814949	     -3.40527837	      2.04990399	      0.73023006	     37.91660312	     -5.94094970	     67.93109189	    125.75607999	     93.12228647	     38.71701227	     -5.63791797	     62.00647396	    128.12375025	    100.77671994
      0.03333330	      0.41309667	     -1.25375060	     -5.84476885	      1.37837803	      0.91467009	     -0.11765917	     -3.22629931	      0.14289655	     -4.51456675	      4.29433978	      0.07495037	     20.08790103	      7.25515775	     -6.87558314	     -5.65199817	     -0.44724901	     -6.57481435	      1.73562832	      0.03029243	     19.17775273	      7.12794631	     -6.87558314	     -4.81050973	      1.67450556	      0.34972526	     38.49453972	     -3.85946281	     66.69461204	    126.83222480	     96.70578880	     39.70240025	     -5.86799526	     61.37392251	    128.77461687	    106.31233514
      0.05000000	      0.89297882	     -1.16720027	     -5.33654029	      1.37706067	      0.91459357	     -0.11836139	     -3.66088558	      0.05856191	     -5.82006020	      4.43098996	      0.07733536	     20.72170722	      7.37959668	     -7.12071435	     -6.03120941	     -0.21062611	     -6.49658686	      1.72102146	      0.03003749	     19.42846614	      7.03718305	     -7.12071435	     -5.66312262	      1.52638343	     -0.22888669	     38.89552824	     -2.34937735	     66.43272687	    126.62278254	     97.47796646	     40.60806168	     -5.82577271	     60.99736169	    129.14273966	    106.96439372
      0.06666670	      1.31409793	     -1.02397093	     -5.18444463	      1.37555381	      0.91541692	     -0.11877018	     -3.92566010	     -0.08512393	     -6.43190460	      4.70866932	      0.08218178	     21.33711874	      7.24807515	     -7.21986489	     -6.32532321	      0.02345841	     -6.48386635	      1.86188778	      0.03249607	     19.54670481	      6.94728102	     -7.21986489	     -6.45612331	      1.25282640	     -0.16780449	     38.90959470	     -1.68458006	     66.29260950	    126.39781800	     97.48645287	     41.37451799	     -5.42061274	     60.80348709	    129.05539540	    106.42150875
      0.08333330	      1.58764061	     -0.86189119	     -5.06145635	      1.37448337	      0.91570132	     -0.11887437	     -3.97650030	     -0.29767017	     -6.92104889	      5.16376511	      0.09012470	     21.68537679	      6.93609996	     -7.29719587	     -6.46246444	      0.20435461	     -6.53847899	      2.00982598	      0.03507808	     19.54535506	      7.07059417	     -7.29719587	     -7.06876867	      1.04815460	     -0.02098315	     38.86200770	     -1.33541189	     66.39949182	    126.18895496	     96.84165577	     41.92716847	     -5.05823028	     60.62089531	    128.97272888	    105.03485431
      0.10000000	      1.75085423	     -0.71092214	     -5.02171533	      1.37319096	      0.91853493	     -0.11928218	     -3.90522779	     -0.50663272	     -7.19029692	      5.61228154	      0.09795279	     21.80678526	      6.51742253	     -7.39414896	     -6.47975853	      0.34603236	     -6.57441186	      2.17536642	      0.03796731	     19.39591469	      6.97476684	     -7.39414896	     -7.61310270	      0.84378708	      0.21279257	     38.71879209	     -1.33606333	     66.57136477	    126.10306157	     96.54380896	     42.25703149	     -4.78905325	     60.65298805	    128.81402322	    104.40486926
      0.11666670	      1.89238825	     -0.51922438	     -4.98645149	      1.37208536	      0.91610012	     -0.11897541	     -3.83130238	     -0.76111914	     -7.59930475	      6.01076990	      0.10490773	     21.94817406	      6.25999141	     -7.42323466	     -6.46376017	      0.52190298	     -6.77267147	      2.33025971	      0.04067070	     19.31442634	      7.13225730	     -7.42323466	     -8.02103996	      0.60580138	      0.35007343	     38.77139478	     -1.24350859	     66.49622428	    126.04798339	     95.90561772	     42.75388023	     -4.49969827	     60.59680982	    128.73535179	    103.39844010
